<?xml version="1.0" encoding="iso-8859-1"?>
<svg width="60px" height="61px" viewBox="2 1 60 61" version="1.1" xmlns="http://www.w3.org/2000/svg" xmlns:xlink="http://www.w3.org/1999/xlink">
    <!-- Generator: Sketch 42 (36781) - http://www.bohemiancoding.com/sketch -->
    <desc>Created with Sketch.</desc>
    <defs>
        <linearGradient x1="0%" y1="50%" x2="100%" y2="50%" id="linearGradient-1">
            <stop stop-color="#EE7560" offset="0%"></stop>
            <stop stop-color="#FF5858" offset="100%"></stop>
        </linearGradient>
    </defs>
    <g id="Saleoff-Label" stroke="none" stroke-width="1" fill="none" fill-rule="evenodd" transform="translate(2.000000, 1.000000)">
        <path d="M29.2338109,1.57945776 C30.3481649,0.443689198 31.9626167,-0.175249684 33.6634728,0.0436305638 C35.3538557,0.261463538 36.7515112,1.25742103 37.5443363,2.6256844 C38.9425155,1.86379262 40.6679837,1.74492703 42.2300693,2.45026602 C43.7816815,3.15193954 44.8279594,4.51339562 45.187192,6.05288827 C46.7471829,5.73399337 48.4333764,6.12357926 49.7189681,7.25411145 C50.9998468,8.37783636 51.6020588,9.98644909 51.496279,11.5646909 C53.0798347,11.7149747 54.5796044,12.5779284 55.480304,14.0367809 C56.3762907,15.4856844 56.4820706,17.2000718 55.9196569,18.6777753 C57.3921962,19.2836233 58.5714843,20.5476829 59.008219,22.2049938 C59.4407643,23.8518321 59.042257,25.5222339 58.0719102,26.7711081 C59.3019937,27.7812038 60.0633991,29.334311 59.9958466,31.0466038 C59.9288178,32.7499949 59.0600616,34.2303165 57.7660913,35.1414448 C58.6495101,36.46677 58.922862,38.1738264 58.3588773,39.7923883 C57.7980347,41.401001 56.5339132,42.5634751 55.0304778,43.058312 C55.4860643,44.5826192 55.2504161,46.2959593 54.2387,47.6783608 C53.2306495,49.0529079 51.6827029,49.7954251 50.1007181,49.8299851 C50.0928632,51.4213178 49.3654958,52.9901341 47.9934998,54.0164626 C46.6309298,55.0386019 44.9316446,55.2962313 43.4088338,54.8658017 C42.9364901,56.3859198 41.7823377,57.6745903 40.1694569,58.2553037 C38.569144,58.8339226 36.8688116,58.585195 35.5371376,57.7306195 C34.6421982,59.0459955 33.1607567,59.9408911 31.449951,60.0278148 C29.7475239,60.1115967 28.1959116,59.3758868 27.1742459,58.1704745 C25.9326418,59.166432 24.2553505,59.5890071 22.5932454,59.1711448 C20.9416136,58.7559007 19.6706845,57.5997103 19.045955,56.1466177 C17.5671318,56.7362329 15.8390452,56.6514037 14.3717426,55.7669809 C12.913866,54.8872708 12.0367311,53.4106146 11.8628751,51.8386565 C10.2751301,51.9716602 8.64811042,51.3857105 7.50390764,50.1101309 C6.36651248,48.8424058 5.95805565,47.1730512 6.25078304,45.6183731 C4.69498146,45.2821981 3.30884656,44.2480151 2.58619217,42.6943843 C1.86929807,41.1491316 1.96617565,39.4331733 2.70035062,38.0329681 C1.31107374,37.2553672 0.287837022,35.8624929 0.0511415266,34.1648619 C-0.184506643,32.4782273 0.409326745,30.8654255 1.52053878,29.7390824 C0.418229009,28.5917938 -0.152563225,26.9596174 0.116075689,25.2677464 C0.38419094,23.5837299 1.4236612,22.2154666 2.81503273,21.4635239 C2.09604398,20.0439441 2.02692051,18.3164658 2.77890001,16.7769731 C3.52564287,15.2463823 4.91858539,14.2399521 6.46915035,13.9283881 C6.19632213,12.3600954 6.63462773,10.6870753 7.80396631,9.4340121 C8.96597362,8.18880342 10.5914223,7.63322461 12.1660758,7.78665024 C12.3634966,6.20736118 13.2710039,4.73594133 14.7550637,3.87927127 C16.6297758,2.79534277 18.8956638,2.99903755 20.5300148,4.21544619 C21.0034058,2.22405485 22.6236179,0.608111203 24.7680162,0.243136244 C26.4484495,-0.042245897 28.0765165,0.502336538 29.2338109,1.57945776 Z" id="Fill-115-Copy" fill="url(#linearGradient-1)"></path>
    </g>
</svg>